<svg xmlns="http://www.w3.org/2000/svg" viewBox="0 0 80 80"><defs><style>.cls-1{fill:#713981;}.cls-2{fill:#fff;}</style></defs><g id="light_green_bg" data-name="light green bg"><path class="cls-1" d="M8.47,2A16.13,16.13,0,0,1,16.2,0H63.8A16.2,16.2,0,0,1,80,16.2V63.8A16.2,16.2,0,0,1,63.8,80H16.2A16.2,16.2,0,0,1,0,63.8V16.2A16.19,16.19,0,0,1,8.47,2"/></g><g id="icons_set" data-name="icons set"><path class="cls-2" d="M63,21H56.4V17a1,1,0,0,0-1-1H49.6a1,1,0,0,0-1,1v4H31.4V17a1,1,0,0,0-1-1H24.6a1,1,0,0,0-1,1v4H17a1,1,0,0,0-1,1V63a1,1,0,0,0,1,1H63a1,1,0,0,0,1-1V22A1,1,0,0,0,63,21Zm-1,7.4H18V23h5.6v1.7a1,1,0,0,0,1,1h5.8a1,1,0,0,0,.9-.6.6.6,0,0,0,.1-.4V23H48.5v1.6a.6.6,0,0,0,.1.4,1,1,0,0,0,.9.6h5.8a1,1,0,0,0,1-1V23H62ZM46.57,44.1v3.81a.6.6,0,0,1-.6.59H43.09a.6.6,0,0,0-.59.6V52a.6.6,0,0,1-.59.6H38.09a.6.6,0,0,1-.59-.6V49.1a.6.6,0,0,0-.59-.6H34a.6.6,0,0,1-.6-.59V44.1a.6.6,0,0,1,.6-.6h2.88a.6.6,0,0,0,.59-.59V40a.6.6,0,0,1,.59-.6h3.82a.6.6,0,0,1,.59.6v2.88a.6.6,0,0,0,.59.59H46A.6.6,0,0,1,46.57,44.1Z"/></g></svg>