<svg xmlns="http://www.w3.org/2000/svg" viewBox="0 0 80 80"><defs><style>.cls-1{fill:#4da64d;}.cls-2{fill:#fff;}</style></defs><g id="green_bg" data-name="green bg"><rect class="cls-1" width="80" height="80" rx="16"/></g><g id="icons_set" data-name="icons set"><path class="cls-2" d="M28.75,28.63a1.81,1.81,0,0,1,1-.93,1.35,1.35,0,0,1,.82,0l.19.08a1.43,1.43,0,0,1,.64.6,1.19,1.19,0,0,1,.12.29L36.1,44.49l4.22-8.88.17-.36a1.22,1.22,0,0,1,.74-.5,1.58,1.58,0,0,1,.5,0,1.3,1.3,0,0,1,1.24,1l3.81,10L49.52,28.8a1.43,1.43,0,0,1,1.34-1.18,1,1,0,0,1,.63.07,1.49,1.49,0,0,1,.54.41,1.83,1.83,0,0,1,.26.38L57.14,41.4h6.11A27,27,0,0,0,65.69,30a14.05,14.05,0,0,0-14-14,13.8,13.8,0,0,0-10.75,5.14,1.1,1.1,0,0,1-1.75,0A14,14,0,0,0,14.31,29.9,29.73,29.73,0,0,0,17.92,44h5.14Z"/><path class="cls-2" d="M55.31,43.75a1.16,1.16,0,0,1-.53-.7l-3.22-8.63-2.75,16.9a1.72,1.72,0,0,1-.43.8,1.25,1.25,0,0,1-.91.38h-.11a1.56,1.56,0,0,1-.81-.22,1.18,1.18,0,0,1-.53-.71L41.49,39.64l-4.38,9.3a1.62,1.62,0,0,1-.61.66,1.52,1.52,0,0,1-1.27.13,1.45,1.45,0,0,1-.68-.52,1.16,1.16,0,0,1-.2-.44L29.93,33.53,25.44,45.88a1.4,1.4,0,0,1-1.32,1H19.64C26.2,57,36.87,62.84,39.3,64,42,62.73,55.09,56,61.79,44l-5.67,0A1.56,1.56,0,0,1,55.31,43.75Z"/></g></svg>