<svg xmlns="http://www.w3.org/2000/svg" viewBox="0 0 80 80"><defs><style>.cls-1{fill:#2164a5;}.cls-2{fill:#fcfcfc;}</style></defs><g id="blue_bg" data-name="blue bg"><rect class="cls-1" x="0.03" y="-0.07" width="80" height="80" rx="16"/></g><g id="icons_set" data-name="icons set"><path class="cls-2" d="M63.51,21.4a4.81,4.81,0,0,0-4.3-2.6h-2.5a3.84,3.84,0,0,0-3.6-2.8,3.7,3.7,0,0,0,0,7.4,3.88,3.88,0,0,0,3.6-2.7h2.5a2.74,2.74,0,0,1,2.5,1.6,2.56,2.56,0,0,1-.3,2.9L54,35.3a10.5,10.5,0,0,1-7.5,3,10.94,10.94,0,0,1-7.5-3l-7.4-10.1a3,3,0,0,1-.3-2.9,2.74,2.74,0,0,1,2.5-1.6h2.6a3.72,3.72,0,0,0,7.3-1A3.76,3.76,0,0,0,40,16a3.88,3.88,0,0,0-3.6,2.7h-2.6a4.81,4.81,0,0,0-4.3,2.6,4.75,4.75,0,0,0,.4,5l7.2,9.8.3.4,5.1,7a4.82,4.82,0,0,0,2.9,1.9V57.2a4.7,4.7,0,1,1-9.4,0v-13a6.7,6.7,0,1,0-13.4,0V49a7.54,7.54,0,1,0,8.6,7.4,7.64,7.64,0,0,0-6.6-7.5V44.2a4.7,4.7,0,0,1,9.4,0v13a6.7,6.7,0,1,0,13.4,0V45.5a4.67,4.67,0,0,0,2.9-1.9l5.1-7a.1.1,0,0,0,.1-.1c.1-.1.2-.2.2-.3l7.2-9.8A4.6,4.6,0,0,0,63.51,21.4Zm-34.4,35a5.59,5.59,0,0,1-5.6,5.6A5.51,5.51,0,0,1,18,56.4a5.7,5.7,0,0,1,5.5-5.6h.2A5.62,5.62,0,0,1,29.11,56.4Zm19.7-14a2.84,2.84,0,0,1-2.3,1.1,3,3,0,0,1-2.3-1.1l-2.1-2.9a12.5,12.5,0,0,0,8.8,0Z"/><circle class="cls-2" cx="23.61" cy="56.4" r="3.9"/></g></svg>