<svg xmlns="http://www.w3.org/2000/svg" viewBox="0 0 80 80"><defs><style>.cls-1{fill:#444a88;}.cls-2{fill:#fff;}</style></defs><g id="light_blue_bg" data-name="light blue bg"><rect class="cls-1" width="80" height="80" rx="16"/></g><g id="icons_set" data-name="icons set"><rect class="cls-2" x="23.8" y="16" width="32.4" height="48" rx="6"/><path class="cls-1" d="M33.5,20.7a5,5,0,0,0-5,5,5,5,0,1,0,5-5Zm0,7.9a3,3,0,0,1-3-3,2.77,2.77,0,0,1,.3-1.3l4,4A2.77,2.77,0,0,1,33.5,28.6Zm2.7-1.7-4-4a2.77,2.77,0,0,1,1.3-.3,3,3,0,0,1,3,3A2.77,2.77,0,0,1,36.2,26.9Z"/><path class="cls-1" d="M46.5,20.7a5,5,0,0,0,0,10,5,5,0,0,0,0-10Zm0,7.9a3,3,0,0,1-3-3,2.77,2.77,0,0,1,.3-1.3l4,4A2.77,2.77,0,0,1,46.5,28.6Zm2.7-1.7-4-4a2.77,2.77,0,0,1,1.3-.3,3,3,0,0,1,3,3A2.77,2.77,0,0,1,49.2,26.9Z"/><path class="cls-1" d="M33.5,35.1a5,5,0,0,0,0,10,5,5,0,0,0,5-5A5,5,0,0,0,33.5,35.1Zm0,8a3,3,0,0,1-3-3,2.77,2.77,0,0,1,.3-1.3l4,4A2.77,2.77,0,0,1,33.5,43.1Zm2.7-1.7-4-4a2.77,2.77,0,0,1,1.3-.3,3,3,0,0,1,3,3A2.77,2.77,0,0,1,36.2,41.4Z"/><path class="cls-1" d="M46.5,35.1a5,5,0,0,0-5,5,5,5,0,0,0,10,0A5.08,5.08,0,0,0,46.5,35.1Zm0,8a3,3,0,0,1-3-3,2.77,2.77,0,0,1,.3-1.3l4,4A2.77,2.77,0,0,1,46.5,43.1Zm2.7-1.7-4-4a2.77,2.77,0,0,1,1.3-.3,3,3,0,0,1,3,3A2.77,2.77,0,0,1,49.2,41.4Z"/><path class="cls-1" d="M33.5,49.6a5,5,0,0,0-5,5,5,5,0,1,0,5-5Zm0,8a3,3,0,0,1-3-3,2.77,2.77,0,0,1,.3-1.3l4,4A5,5,0,0,1,33.5,57.6Zm2.7-1.8-4-4a2.77,2.77,0,0,1,1.3-.3,3,3,0,0,1,3,3A2.5,2.5,0,0,1,36.2,55.8Z"/><path class="cls-1" d="M46.5,49.6a5,5,0,0,0,0,10,5,5,0,0,0,0-10Zm0,8a3,3,0,0,1-3-3,2.77,2.77,0,0,1,.3-1.3l4,4A5,5,0,0,1,46.5,57.6Zm2.7-1.8-4-4a2.77,2.77,0,0,1,1.3-.3,3,3,0,0,1,3,3A2.5,2.5,0,0,1,49.2,55.8Z"/></g></svg>