<svg xmlns="http://www.w3.org/2000/svg" viewBox="0 0 80 80"><defs><style>.cls-1{fill:#713981;}.cls-2{fill:none;}.cls-3{fill:#fff;}</style></defs><g id="light_green_bg" data-name="light green bg"><rect class="cls-1" width="80" height="80" rx="16"/></g><g id="icons_set" data-name="icons set"><path class="cls-2" d="M25.25,50.4a2.74,2.74,0,1,0-2.66-4.33h2.22a1.58,1.58,0,0,1,1.56,1.86,1.65,1.65,0,0,1-1.66,1.31h-2.2A2.86,2.86,0,0,0,25.25,50.4Z"/><path class="cls-2" d="M24.81,21.87a2.64,2.64,0,0,0-2.22,1.19h2.22a1.55,1.55,0,1,1,0,3.1H22.59a2.67,2.67,0,0,0,2.86,1.11,2.72,2.72,0,0,0,2.13-2.47A2.77,2.77,0,0,0,24.81,21.87Z"/><path class="cls-2" d="M24.81,52.65a2.78,2.78,0,0,0-2.22,1.11h2.22a1.59,1.59,0,0,1,1.56,1.86,1.66,1.66,0,0,1-1.66,1.32h-2.2a2.84,2.84,0,0,0,2.74,1.15,2.73,2.73,0,0,0-.44-5.44Z"/><path class="cls-2" d="M24.68,33.85H22.51A2.86,2.86,0,0,0,25.25,35a2.73,2.73,0,0,0-.44-5.44,2.62,2.62,0,0,0-2.22,1.19h2.22a1.52,1.52,0,0,1,1.58,1.52A1.69,1.69,0,0,1,24.68,33.85Z"/><path class="cls-2" d="M25.25,42.7a2.73,2.73,0,0,0-.44-5.44,2.64,2.64,0,0,0-2.22,1.19h2.22A1.52,1.52,0,0,1,26.39,40a1.7,1.7,0,0,1-1.71,1.57H22.51A2.86,2.86,0,0,0,25.25,42.7Z"/><path class="cls-3" d="M43.56,65.29l-2.39,6.08a.12.12,0,0,0,.15.15l6.08-2.39h0l-3.83-3.84Z"/><polygon class="cls-3" points="58.39 50.46 58.38 50.47 44.85 64 44.83 64.02 48.67 67.86 52.52 64 58.38 58.14 62.23 54.3 58.39 50.46"/><path class="cls-3" d="M65.64,48.36l-1.31-1.31a1.79,1.79,0,0,0-2.53,0L59.65,49.2,63.49,53l2.15-2.15A1.79,1.79,0,0,0,65.64,48.36Z"/><path class="cls-3" d="M58.38,20.84A4.84,4.84,0,0,0,53.54,16H23.11a1,1,0,0,0-1,1v6.06h-1.9a1.55,1.55,0,1,0,0,3.1h1.9v4.6h-1.9a1.57,1.57,0,0,0-1.59,1.5,1.59,1.59,0,0,0,1.59,1.59h1.9v4.6H20.24a1.55,1.55,0,1,0,0,3.1h1.9v4.52H20.3a1.66,1.66,0,0,0-1.66,1.32,1.59,1.59,0,0,0,1.57,1.85h1.9v4.53H20.3a1.65,1.65,0,0,0-1.66,1.31,1.6,1.6,0,0,0,1.57,1.86h1.9V63a1,1,0,0,0,1,1H41.85L58.38,47.47ZM23.81,30.76H22.59a2.62,2.62,0,0,1,2.22-1.19A2.73,2.73,0,0,1,25.25,35a2.86,2.86,0,0,1-2.74-1.16h1.17a1.69,1.69,0,0,0,1.71-1.57A1.52,1.52,0,0,0,23.81,30.76Zm-.13,10.79A1.7,1.7,0,0,0,25.39,40a1.52,1.52,0,0,0-1.58-1.53H22.59a2.64,2.64,0,0,1,2.22-1.19,2.73,2.73,0,0,1,.44,5.44,2.86,2.86,0,0,1-2.74-1.15Zm0,7.69a1.65,1.65,0,0,0,1.66-1.31,1.58,1.58,0,0,0-1.56-1.86H22.59a2.76,2.76,0,1,1,2.66,4.33,2.86,2.86,0,0,1-2.74-1.16Zm1.54,8.85a2.84,2.84,0,0,1-2.74-1.15h1.2a1.66,1.66,0,0,0,1.66-1.32,1.59,1.59,0,0,0-1.56-1.86H22.59a2.78,2.78,0,0,1,5,1.84A2.74,2.74,0,0,1,25.25,58.09Zm.2-30.82a2.67,2.67,0,0,1-2.86-1.11h1.22a1.55,1.55,0,1,0,0-3.1H22.59a2.64,2.64,0,0,1,2.22-1.19,2.77,2.77,0,0,1,2.77,2.93A2.72,2.72,0,0,1,25.45,27.27ZM50.83,50.66H34a1,1,0,0,1-1-1h0a1,1,0,0,1,1-1H50.83a1,1,0,0,1,1,1h0A1,1,0,0,1,50.83,50.66Zm-8.22,5H34a1,1,0,0,1-1-1h0a1,1,0,0,1,1-1h8.59a1,1,0,0,1,1,1h0A1,1,0,0,1,42.61,55.66Zm8.22-30H34a1,1,0,0,1-1-1h0a1,1,0,0,1,1-1H50.83a1,1,0,0,1,1,1h0A1,1,0,0,1,50.83,25.66Zm0,6H34a1,1,0,0,1-1-1h0a1,1,0,0,1,1-1H50.83a1,1,0,0,1,1,1h0A1,1,0,0,1,50.83,31.66Z"/></g></svg>