<svg xmlns="http://www.w3.org/2000/svg" viewBox="0 0 80 80"><defs><style>.cls-1{fill:#713981;}.cls-2{fill:#fff;}</style></defs><g id="light_green_bg" data-name="light green bg"><rect class="cls-1" x="0.47" y="0.45" width="80" height="80" rx="16"/></g><g id="icons_set" data-name="icons set"><path class="cls-2" d="M59.1,28.15c0-.1-.1-.2-.2-.3v-.1l-11.1-11c-.1-.1-.2-.2-.3-.2a.6.6,0,0,0-.4-.1H22.8a.94.94,0,0,0-1,1v46a.94.94,0,0,0,1,1H58.1a.94.94,0,0,0,1-1V28.55C59.2,28.35,59.1,28.25,59.1,28.15Zm-11-8.3,7.7,7.7H48.1ZM27.34,27.09a.59.59,0,0,1,.6-.59h2.87a.6.6,0,0,0,.6-.6V23a.6.6,0,0,1,.59-.59h3.81a.6.6,0,0,1,.6.59V25.9a.6.6,0,0,0,.59.6h2.88a.58.58,0,0,1,.59.59V30.9a.59.59,0,0,1-.59.6H37a.59.59,0,0,0-.59.59V35a.59.59,0,0,1-.6.59H32a.59.59,0,0,1-.59-.59V32.09a.59.59,0,0,0-.6-.59H27.94a.6.6,0,0,1-.6-.6Zm27.4,17.67H28.39a1,1,0,0,1-1-1h0a1,1,0,0,1,1-1H54.74a1,1,0,0,1,1,1h0A1,1,0,0,1,54.74,44.76Zm0,6H28.39a1,1,0,0,1-1-1h0a1,1,0,0,1,1-1H54.74a1,1,0,0,1,1,1h0A1,1,0,0,1,54.74,50.76Zm-22,6H28.39a1,1,0,0,1-1-1h0a1,1,0,0,1,1-1h4.39a1,1,0,0,1,1,1h0A1,1,0,0,1,32.78,56.76Zm22,0H50.36a1,1,0,0,1-1-1h0a1,1,0,0,1,1-1h4.38a1,1,0,0,1,1,1h0A1,1,0,0,1,54.74,56.76Z"/></g></svg>