<svg xmlns="http://www.w3.org/2000/svg" viewBox="0 0 80 80"><defs><style>.cls-1{fill:#2164a5;}.cls-2{fill:none;}.cls-3{fill:#fff;}</style></defs><g id="blue_bg" data-name="blue bg"><rect class="cls-1" width="80" height="80" rx="16"/></g><g id="icons_set" data-name="icons set"><path class="cls-1" d="M34.9,44.17H60.56a1.07,1.07,0,0,1,1.07,1.07v0a1.07,1.07,0,0,1-1.07,1.07H34.9a0,0,0,0,1,0,0V44.17a0,0,0,0,1,0,0Z"/><path class="cls-2" d="M34.9,38.17v0Z"/><path class="cls-2" d="M24.93,62.49a1.4,1.4,0,1,0,1.4,1.39A1.39,1.39,0,0,0,24.93,62.49Z"/><rect class="cls-2" x="16.69" y="40.06" width="16.54" height="21.33"/><path class="cls-2" d="M60.56,40.3a1.07,1.07,0,1,0,0-2.13H36.88V40.3Z"/><path class="cls-2" d="M60.56,46.3a1.07,1.07,0,1,0,0-2.13H36.88V46.3Z"/><path class="cls-2" d="M60.56,52.3a1.07,1.07,0,1,0,0-2.13H36.88V52.3Z"/><path class="cls-2" d="M42.54,23.48,37.1,29.41,34.5,26.8a1.45,1.45,0,0,0-2,2l3.67,3.67a1.45,1.45,0,0,0,1,.42h0a1.42,1.42,0,0,0,1-.46l6.45-7a1.45,1.45,0,1,0-2.13-2Z"/><polygon class="cls-2" points="53.93 24.46 61.63 24.46 53.93 16.76 53.93 24.46"/><path class="cls-3" d="M34.9,52.3V38.17h0a2,2,0,0,0-1.95-2H17.08a2.05,2.05,0,0,0-2,2.05V64.59a2.05,2.05,0,0,0,2,2H32.85a2.05,2.05,0,0,0,2-2V52.3Zm-10,13a1.4,1.4,0,1,1,1.4-1.4A1.39,1.39,0,0,1,24.93,65.28Zm8.3-3.89H16.69V40.06H33.23Z"/><path class="cls-3" d="M64.93,25.06c0-.1-.1-.2-.2-.3v-.1l-11.1-11c-.1-.1-.2-.2-.3-.2a.6.6,0,0,0-.4-.1H28.63a1,1,0,0,0-1,1V34.24H32.9c3.21,0,4,1.06,4,4h0v0H60.56a1.07,1.07,0,1,1,0,2.13H36.88v3.87H60.56a1.07,1.07,0,1,1,0,2.13H36.88v3.87H60.56a1.07,1.07,0,1,1,0,2.13H36.88v9.06H63.93a1,1,0,0,0,1-1V25.46C65,25.26,64.93,25.16,64.93,25.06Zm-20.26.38-6.45,7a1.42,1.42,0,0,1-1,.46h0a1.45,1.45,0,0,1-1-.42l-3.67-3.67a1.45,1.45,0,0,1,2-2l2.6,2.61,5.44-5.93a1.45,1.45,0,1,1,2.13,2Zm9.26-1v-7.7l7.7,7.7Z"/></g></svg>