<svg xmlns="http://www.w3.org/2000/svg" viewBox="0 0 80 80"><defs><style>.cls-1{fill:#444a88;}.cls-2{fill:#fff;}</style></defs><g id="light_blue_bg" data-name="light blue bg"><rect class="cls-1" y="0.15" width="80" height="80" rx="16"/></g><g id="icons_set" data-name="icons set"><path class="cls-2" d="M58,38.7H55.3a4,4,0,0,0-4,4V60a2,2,0,0,1-2,2H30.7a2,2,0,0,1-2-2V42.7a4,4,0,0,0-4-4H22a1,1,0,0,0,0,2h2.7a2,2,0,0,1,2,2V60a4,4,0,0,0,4,4H49.3a4,4,0,0,0,4-4V42.7a2,2,0,0,1,2-2H58a1,1,0,0,0,0-2Z"/><path class="cls-2" d="M37,34.9a1,1,0,0,0,.5,1.3l1.9.8a.6.6,0,0,0,.4.1.87.87,0,0,0,.9-.6,1,1,0,0,0-.5-1.3l-1.9-.8C37.8,34.1,37.3,34.4,37,34.9Z"/><path class="cls-2" d="M43.2,41.2a.87.87,0,0,0,.9-.6l.8-1.9a1,1,0,1,0-1.8-.8l-.8,1.9a1,1,0,0,0,.5,1.3A.6.6,0,0,0,43.2,41.2Z"/><path class="cls-2" d="M37.1,41.9a.6.6,0,0,0,.4.1.87.87,0,0,0,.9-.6,1,1,0,0,0-.5-1.3L36,39.3a1,1,0,1,0-.8,1.8Z"/><path class="cls-2" d="M48,34.6a1,1,0,0,0,1.4,0l8.2-8.2a6,6,0,0,0,1.8-4.3,5.82,5.82,0,0,0-1.8-4.3A6,6,0,0,0,53.3,16,5.82,5.82,0,0,0,49,17.8L40.8,26a1,1,0,0,0,0,1.4Z"/><path class="cls-2" d="M30.6,36.3a1.08,1.08,0,0,0,.7.3.91.91,0,0,0,.7-.3l7.2-7.2a1,1,0,0,0,0-1.4L31,19.5a6,6,0,0,0-4.3-1.8,5.82,5.82,0,0,0-4.3,1.8,6,6,0,0,0-1.8,4.3,5.82,5.82,0,0,0,1.8,4.3Z"/><rect class="cls-2" x="31.2" y="48.1" width="17.5" height="11.2" rx="1"/></g></svg>