<svg xmlns="http://www.w3.org/2000/svg" viewBox="0 0 80 80"><defs><style>.cls-1{fill:#2164a5;}.cls-2{fill:#fff;}</style></defs><g id="blue_bg" data-name="blue bg"><rect class="cls-1" width="80" height="80" rx="16"/></g><g id="icons_set" data-name="icons set"><path class="cls-2" d="M64,22.5a5.08,5.08,0,0,1-1.9,3.9v5.8a.94.94,0,0,1-1,1H59.8v19a7.7,7.7,0,1,1-15.4,0V23.6a5.6,5.6,0,1,0-11.2,0V25a3.13,3.13,0,0,1,2.1,2.9v3.6h2.2a4,4,0,0,1,4,4V60a4,4,0,0,1-4,4H20a4,4,0,0,1-4-4V35.5a4,4,0,0,1,4-4h9.1V27.9A3,3,0,0,1,31.2,25V23.6A7.6,7.6,0,0,1,38.8,16a7.75,7.75,0,0,1,7.7,7.6V52.2a5.7,5.7,0,1,0,11.4,0v-19H56.6a.94.94,0,0,1-1-1V26.4a5.32,5.32,0,0,1-1.8-3.9,5.1,5.1,0,0,1,10.2,0ZM36.29,43.22V39.56A2.55,2.55,0,0,0,33.74,37h-10a2.55,2.55,0,0,0-2.55,2.55v3.66a2.56,2.56,0,0,0,2.55,2.56h10A2.56,2.56,0,0,0,36.29,43.22Z"/><circle class="cls-1" cx="28.67" cy="54.03" r="4.93"/><circle class="cls-2" cx="28.67" cy="54.03" r="3.29"/></g></svg>