<svg xmlns="http://www.w3.org/2000/svg" viewBox="0 0 80 80"><defs><style>.cls-1{fill:#713981;}.cls-2{fill:#fff;}</style></defs><g id="light_green_bg" data-name="light green bg"><rect class="cls-1" width="80" height="80" rx="16"/></g><g id="icons_set" data-name="icons set"><path class="cls-2" d="M55.3,22.7H48.8V20.2a.94.94,0,0,0-1-1H44.1a4.21,4.21,0,0,0-8.2.1H32.2a.94.94,0,0,0-1,1v2.5H24.7a.94.94,0,0,0-1,1V63a.94.94,0,0,0,1,1H55.3a.94.94,0,0,0,1-1V23.7A1,1,0,0,0,55.3,22.7ZM33.2,21.2h3.6a.94.94,0,0,0,1-1A2.22,2.22,0,0,1,40,18a2.33,2.33,0,0,1,2.3,2.3.94.94,0,0,0,1,1h3.6v5H33.2ZM30.37,35.3H27.92a1,1,0,0,1-1-1h0a1,1,0,0,1,1-1h2.45a1,1,0,0,1,1,1h0A1,1,0,0,1,30.37,35.3Zm19.77,0H34.3a1,1,0,0,1-1-1h0a1,1,0,0,1,1-1H50.14a1,1,0,0,1,1,1h0A1,1,0,0,1,50.14,35.3Zm0,6H34.3a1,1,0,0,1-1-1h0a1,1,0,0,1,1-1H50.14a1,1,0,0,1,1,1h0A1,1,0,0,1,50.14,41.3Zm0,6H34.3a1,1,0,0,1-1-1h0a1,1,0,0,1,1-1H50.14a1,1,0,0,1,1,1h0A1,1,0,0,1,50.14,47.3Zm0,6H34.3a1,1,0,0,1-1-1h0a1,1,0,0,1,1-1H50.14a1,1,0,0,1,1,1h0A1,1,0,0,1,50.14,53.3Zm-19.77-12H27.92a1,1,0,0,1-1-1h0a1,1,0,0,1,1-1h2.45a1,1,0,0,1,1,1h0A1,1,0,0,1,30.37,41.3Zm0,6H27.92a1,1,0,0,1-1-1h0a1,1,0,0,1,1-1h2.45a1,1,0,0,1,1,1h0A1,1,0,0,1,30.37,47.3Zm0,6H27.92a1,1,0,0,1-1-1h0a1,1,0,0,1,1-1h2.45a1,1,0,0,1,1,1h0A1,1,0,0,1,30.37,53.3Z"/></g></svg>