<svg xmlns="http://www.w3.org/2000/svg" viewBox="0 0 80 80"><defs><style>.cls-1{fill:#444a88;}.cls-2{fill:#fff;}</style></defs><g id="light_blue_bg" data-name="light blue bg"><rect class="cls-1" width="80" height="80" rx="16"/></g><g id="icons_set" data-name="icons set"><path class="cls-2" d="M49.7,27.6a1.16,1.16,0,0,1-1.2-1.2V23.5h1.4a.94.94,0,0,0,1-1V17a.94.94,0,0,0-1-1H30a.94.94,0,0,0-1,1v5.5a.94.94,0,0,0,1,1h1.4v2.9a1.16,1.16,0,0,1-1.2,1.2,5.85,5.85,0,0,0-5.9,5.9V58.1A5.85,5.85,0,0,0,30.2,64H49.8a5.85,5.85,0,0,0,5.9-5.9V33.5A6.13,6.13,0,0,0,49.7,27.6ZM31,21.5V18H48.9v3.5ZM43.44,38.15l2.41,2.41a.8.8,0,0,1,0,1.13L44.1,43.44a.79.79,0,0,0,0,1.12l1.75,1.75a.8.8,0,0,1,0,1.13l-2.41,2.41a.8.8,0,0,1-1.13,0L40.56,48.1a.79.79,0,0,0-1.12,0l-1.75,1.75a.8.8,0,0,1-1.13,0l-2.41-2.41a.8.8,0,0,1,0-1.13l1.75-1.75a.79.79,0,0,0,0-1.12l-1.75-1.75a.8.8,0,0,1,0-1.13l2.41-2.41a.8.8,0,0,1,1.13,0l1.75,1.75a.79.79,0,0,0,1.12,0l1.75-1.75A.8.8,0,0,1,43.44,38.15Z"/></g></svg>