<svg xmlns="http://www.w3.org/2000/svg" viewBox="0 0 80 80"><defs><style>.cls-1{fill:#444a88;}.cls-2{fill:#fff;}</style></defs><g id="light_blue_bg" data-name="light blue bg"><rect class="cls-1" width="80" height="80" rx="16.2"/></g><g id="icons_set" data-name="icons set"><path class="cls-2" d="M32.84,51.3a7.49,7.49,0,0,0-2.2,5.3,7.67,7.67,0,0,0,2.2,5.3,7.49,7.49,0,0,0,5.3,2.2,7.67,7.67,0,0,0,5.3-2.2l7.69-7.69L40.51,43.59Z"/><path class="cls-2" d="M60.44,34.2a7.49,7.49,0,0,0-5.3-2.2,7.67,7.67,0,0,0-5.3,2.2l-7.57,7.62L52.9,52.44l7.64-7.64a7.49,7.49,0,0,0,2.2-5.3A7.84,7.84,0,0,0,60.44,34.2Z"/><path class="cls-2" d="M38.74,15.9A9.33,9.33,0,0,0,33,17.83L46.21,31a9.4,9.4,0,0,0-7.47-15.1Z"/><path class="cls-2" d="M29.34,25.3a9.4,9.4,0,0,0,15.1,7.47L31.27,19.6A9.33,9.33,0,0,0,29.34,25.3Z"/><path class="cls-2" d="M23.64,52.9c3.21,0,5.78-3.51,6.3-8.32H17.34C17.85,49.39,20.42,52.9,23.64,52.9Z"/><path class="cls-2" d="M23.64,32.7c-3.45,0-6.15,4-6.38,9.38H30C29.79,36.74,27.08,32.7,23.64,32.7Z"/></g></svg>