<svg xmlns="http://www.w3.org/2000/svg" viewBox="0 0 80 80"><defs><style>.cls-1{fill:#2164a5;}.cls-2{fill:#fff;}</style></defs><g id="blue_bg" data-name="blue bg"><path class="cls-1" d="M63.8,80H16.2A16.2,16.2,0,0,1,0,63.8V16.2C0,7.25,7.25,0,14.18,0H61.77C72.75,0,80,7.25,80,16.2V63.8A16.2,16.2,0,0,1,63.8,80Z"/></g><g id="icons_set" data-name="icons set"><path class="cls-2" d="M62.1,30.9c.1.1.1.2.1.4v4.2a.94.94,0,0,1-1,1H59.4v4.3c0,2.6-3.1,4.8-5.8,4.8s-5.8-2.1-5.8-4.8v-17a2,2,0,0,0-2-2H26.2a2,2,0,0,0-2,2V33h8.9a4,4,0,0,1,4,4v4.5h3.2a4,4,0,0,1,4,4V59.8A2.22,2.22,0,0,0,46.5,62h4.8a2.09,2.09,0,0,0,2-1.3,6.25,6.25,0,1,1,2.1,0A4.18,4.18,0,0,1,51.3,64H46.5a4.23,4.23,0,0,1-4.2-4.2V45.5a2,2,0,0,0-2-2H37.1V60a4,4,0,0,1-4,4H20a4,4,0,0,1-4-4V37a4,4,0,0,1,4-4h2.2V23.7a4,4,0,0,1,4-4H46a4,4,0,0,1,4,4v17c0,1.5,2.2,2.8,3.8,2.8s3.8-1.3,3.8-2.8V36.4H55.8a.94.94,0,0,1-1-1V31.2a.6.6,0,0,1,.1-.4A6.47,6.47,0,0,1,53,25.9c0-3.5,2.1-9.9,5.5-9.9S64,22.4,64,25.9A6.87,6.87,0,0,1,62.1,30.9Zm-28,15.86V43.09a2.55,2.55,0,0,0-2.55-2.55h-10A2.55,2.55,0,0,0,19,43.09v3.67a2.55,2.55,0,0,0,2.55,2.55h10A2.55,2.55,0,0,0,34.09,46.76Z"/></g></svg>