<svg xmlns="http://www.w3.org/2000/svg" viewBox="0 0 80 80"><defs><style>.cls-1{fill:#fff;}.cls-2{fill:#dc143c;}</style></defs><g id="icons_set" data-name="icons set"><circle class="cls-1" cx="42" cy="38.76" r="27.7"/><path class="cls-2" d="M77.91,32.21,65.7,11.06A15.65,15.65,0,0,0,52.22,3.22H27.78A15.47,15.47,0,0,0,14.3,11.06L2.09,32.21a15.55,15.55,0,0,0,0,15.58L14.3,68.94a15.65,15.65,0,0,0,13.48,7.84H52.22A15.47,15.47,0,0,0,65.7,68.94L77.91,47.88A15.71,15.71,0,0,0,77.91,32.21Zm-20,6.48V51.84A10.89,10.89,0,0,1,47,62.71H35.45a10.77,10.77,0,0,1-9.27-5.23H26.1L17.76,41.05a2.75,2.75,0,0,1,1.34-3.7,2.84,2.84,0,0,1,3.8,1.18l2.61,5.14a1,1,0,0,0,1.94-.43V22.35a2.87,2.87,0,0,1,5.73,0V37.18a1.29,1.29,0,0,0,1.26,1.26h0a1.32,1.32,0,0,0,1.35-1.26V20.07a2.87,2.87,0,0,1,5.73,0V37.26a1.24,1.24,0,0,0,1.26,1.27,1.32,1.32,0,0,0,1.35-1.27V22.35a2.87,2.87,0,0,1,5.73,0v15a1.24,1.24,0,0,0,1.26,1.26h0a1.32,1.32,0,0,0,1.35-1.26v-11a2.81,2.81,0,0,1,2.86-2.7,2.48,2.48,0,0,1,2.53,2.7V38.69Z"/></g></svg>