<svg xmlns="http://www.w3.org/2000/svg" viewBox="0 0 80 80"><defs><style>.cls-1{fill:#fff;}.cls-2{fill:#efad0a;}</style></defs><g id="icons_set" data-name="icons set"><circle class="cls-1" cx="41.96" cy="41.99" r="29.26"/><path class="cls-2" d="M40.06,77.5h-.12A37.44,37.44,0,0,1,2.5,40.06v-.12A37.44,37.44,0,0,1,39.94,2.5h.12A37.44,37.44,0,0,1,77.5,39.94v.12A37.44,37.44,0,0,1,40.06,77.5ZM40,54a5,5,0,1,0,5,5A5,5,0,0,0,40,54Zm0-38c-3.85,0-6.94,2.24-6.94,5.08v.85l2.72,22.65a4.17,4.17,0,1,0,8.33,0l2.73-22.65.1-.85C46.94,18.2,43.85,16,40,16Z"/></g></svg>