<svg xmlns="http://www.w3.org/2000/svg" viewBox="0 0 80 80"><defs><style>.cls-1{fill:#713981;}.cls-2{fill:#fff;}</style></defs><g id="light_green_bg" data-name="light green bg"><rect class="cls-1" x="0.08" width="80" height="80" rx="16"/></g><g id="icons_set" data-name="icons set"><path class="cls-2" d="M58.43,28.83,47.25,17.75a.77.77,0,0,0-.62-.22H22.33a1,1,0,0,0-1,1v46a1,1,0,0,0,1,1h35.3a1,1,0,0,0,1-1V29.63C58.64,29.18,58.63,29.05,58.43,28.83Zm-10.8-7.9,7.7,7.7h-7.7ZM40,56.58h0a1.94,1.94,0,0,1-1.94-1.94V33.3A1.94,1.94,0,0,1,40,31.36h0a1.94,1.94,0,0,1,1.94,1.94V54.64A1.94,1.94,0,0,1,40,56.58Zm-8.07,0h0A1.94,1.94,0,0,1,30,54.64V46.51a1.94,1.94,0,0,1,1.94-1.94h0a2,2,0,0,1,1.94,1.94v8.13A2,2,0,0,1,31.93,56.58Zm16.32,0h0a1.94,1.94,0,0,1-1.93-1.94V40A1.94,1.94,0,0,1,48.25,38h0A1.94,1.94,0,0,1,50.19,40V54.64A1.94,1.94,0,0,1,48.25,56.58Z"/></g></svg>