<svg xmlns="http://www.w3.org/2000/svg" viewBox="0 0 80 80"><defs><style>.cls-1{fill:#444a88;}.cls-2{fill:#fff;}</style></defs><g id="light_blue_bg" data-name="light blue bg"><rect class="cls-1" width="80" height="80" rx="16"/></g><g id="icons_set" data-name="icons set"><path class="cls-2" d="M44.11,58.46,35.8,40.8V28.42h1a1.27,1.27,0,0,0,0-2.54H23.45a1.27,1.27,0,1,0,0,2.54h.95V40.8L16.08,58.46a3.81,3.81,0,0,0,1.83,5.06,3.86,3.86,0,0,0,1.61.36H40.67a3.8,3.8,0,0,0,3.44-5.42ZM26.93,41.37V28.42h6.33V41.37l4,8.58H22.89Z"/><path class="cls-2" d="M63.28,16H50.48a.94.94,0,0,0-1,1v3.2a1.14,1.14,0,0,0,.3.8l1.5,1.4V58.5a5.5,5.5,0,0,0,11,0V22.3L64,21a1.08,1.08,0,0,0,.3-.7V17A.94.94,0,0,0,63.28,16Zm-1,3.8-1.5,1.4a.78.78,0,0,0-.3.7v14h-7.1v-14a.78.78,0,0,0-.3-.7l-1.6-1.4V18h10.8Z"/></g></svg>