<svg xmlns="http://www.w3.org/2000/svg" viewBox="0 0 80 80"><defs><style>.cls-1{fill:#444a88;}.cls-2{fill:#fff;}</style></defs><g id="light_blue_bg" data-name="light blue bg"><rect class="cls-1" width="80" height="80" rx="16"/></g><g id="icons_set" data-name="icons set"><path class="cls-2" d="M35.1,16H22.3a.94.94,0,0,0-1,1v3.2a1.14,1.14,0,0,0,.3.8l1.5,1.4V58.5a5.5,5.5,0,0,0,11,0V22.3L35.8,21a1.08,1.08,0,0,0,.3-.7V17A.94.94,0,0,0,35.1,16Zm-1,3.8-1.5,1.4a.78.78,0,0,0-.3.7v14H25.2v-14a.78.78,0,0,0-.3-.7l-1.6-1.4V18H34.1Z"/><path class="cls-2" d="M57.7,16H44.9a.94.94,0,0,0-1,1v3.2a.78.78,0,0,0,.3.7l1.5,1.4V58.4a5.5,5.5,0,0,0,11,0V22.3L58.4,21a1.08,1.08,0,0,0,.3-.7V17A.94.94,0,0,0,57.7,16Zm-.9,3.8h-.1l-1.5,1.4a1.08,1.08,0,0,0-.3.7v19H47.8v-19a.78.78,0,0,0-.3-.7L46,19.8V18H56.8Z"/></g></svg>