<svg xmlns="http://www.w3.org/2000/svg" viewBox="0 0 80 80"><defs><style>.cls-1{fill:#444a88;}.cls-2{fill:#fff;}.cls-3{fill:none;}</style></defs><g id="light_blue_bg" data-name="light blue bg"><rect class="cls-1" width="80" height="80" rx="16"/></g><g id="icons_set" data-name="icons set"><path class="cls-2" d="M70.46,56.76a3,3,0,0,0-1.61-1.68,3.1,3.1,0,0,0-2.32,0l-4.05,1.6h0l-5,2a3,3,0,0,0-1.72,3.93,3,3,0,0,0,1.6,1.68,3.08,3.08,0,0,0,2.33,0l5-2,4.08-1.59a3,3,0,0,0,1.68-1.61A3.15,3.15,0,0,0,70.46,56.76Z"/><rect class="cls-3" x="32.22" y="19.47" width="15.46" height="3.02"/><path class="cls-2" d="M48.83,27.19a1.06,1.06,0,0,1-1.1-1.09V23.46H49a.87.87,0,0,0,.91-.91v-5a.87.87,0,0,0-.91-.91H30.9a.86.86,0,0,0-.91.91v5a.86.86,0,0,0,.91.91h1.27V26.1a1.05,1.05,0,0,1-1.09,1.09,5.32,5.32,0,0,0-5.37,5.37V54.94a5.33,5.33,0,0,0,5.37,5.37H48.92a5.33,5.33,0,0,0,5.37-5.37V32.56A5.59,5.59,0,0,0,48.83,27.19Zm-17-5.55V18.45H48.1v3.19ZM52.67,50.39H27.33V37.17H52.67Z"/><circle class="cls-2" cx="60.77" cy="48.19" r="4.4"/></g></svg>