<svg xmlns="http://www.w3.org/2000/svg" viewBox="0 0 80 80"><defs><style>.cls-1{fill:#713981;}.cls-2{fill:none;}.cls-3{fill:#fff;}</style></defs><g id="light_green_bg" data-name="light green bg"><rect class="cls-1" width="80" height="80" rx="16"/></g><g id="icons_set" data-name="icons set"><path class="cls-2" d="M24.81,21.87a2.64,2.64,0,0,0-2.22,1.19h2.22a1.55,1.55,0,1,1,0,3.1H22.59a2.67,2.67,0,0,0,2.86,1.11,2.72,2.72,0,0,0,2.13-2.47A2.77,2.77,0,0,0,24.81,21.87Z"/><path class="cls-2" d="M24.81,52.65a2.78,2.78,0,0,0-2.22,1.11h2.22a1.59,1.59,0,0,1,1.56,1.86,1.66,1.66,0,0,1-1.66,1.32h-2.2a2.84,2.84,0,0,0,2.74,1.15,2.73,2.73,0,0,0-.44-5.44Z"/><path class="cls-3" d="M55,16H24.61a1,1,0,0,0-1,1v6.06h-1.9a1.55,1.55,0,1,0,0,3.1h1.9v4.6h-1.9a1.57,1.57,0,0,0-1.59,1.5,1.59,1.59,0,0,0,1.59,1.59h1.9v4.6H21.74a1.55,1.55,0,1,0,0,3.1h1.9v4.52H21.8a1.66,1.66,0,0,0-1.66,1.32,1.59,1.59,0,0,0,1.57,1.85h1.9v4.53H21.8a1.65,1.65,0,0,0-1.66,1.31,1.6,1.6,0,0,0,1.57,1.86h1.9V63a1,1,0,0,0,1,1l30.45-.09a4.82,4.82,0,0,0,4.82-4.83V20.84A4.84,4.84,0,0,0,55,16ZM35.52,23.66H52.33a1,1,0,0,1,0,2H35.52a1,1,0,0,1,0-2Zm0,6H52.33a1,1,0,0,1,0,2H35.52a1,1,0,0,1,0-2Zm-10.21,1.1H24.09a2.62,2.62,0,0,1,2.22-1.19A2.73,2.73,0,0,1,26.75,35,2.86,2.86,0,0,1,24,33.85h1.17a1.69,1.69,0,0,0,1.71-1.57A1.52,1.52,0,0,0,25.31,30.76Zm-.13,10.79A1.7,1.7,0,0,0,26.89,40a1.52,1.52,0,0,0-1.58-1.53H24.09a2.64,2.64,0,0,1,2.22-1.19,2.73,2.73,0,0,1,.44,5.44A2.86,2.86,0,0,1,24,41.55Zm0,7.69a1.65,1.65,0,0,0,1.66-1.31,1.58,1.58,0,0,0-1.56-1.86H24.09a2.76,2.76,0,1,1,2.66,4.33A2.86,2.86,0,0,1,24,49.24Zm1.54,8.85A2.84,2.84,0,0,1,24,56.94h1.2a1.66,1.66,0,0,0,1.66-1.32,1.59,1.59,0,0,0-1.56-1.86H24.09a2.78,2.78,0,0,1,5,1.84A2.74,2.74,0,0,1,26.75,58.09ZM27,27.27a2.67,2.67,0,0,1-2.86-1.11h1.22a1.55,1.55,0,1,0,0-3.1H24.09a2.64,2.64,0,0,1,2.22-1.19,2.77,2.77,0,0,1,2.77,2.93A2.72,2.72,0,0,1,27,27.27ZM52.33,37.66H35.52a1,1,0,0,1-1-1h0a1,1,0,0,1,1-1H52.33a1,1,0,0,1,1,1h0A1,1,0,0,1,52.33,37.66Zm0,6H35.52a1,1,0,0,1-1-1h0a1,1,0,0,1,1-1H52.33a1,1,0,0,1,1,1h0A1,1,0,0,1,52.33,43.66Zm0,6H35.52a1,1,0,0,1-1-1h0a1,1,0,0,1,1-1H52.33a1,1,0,0,1,1,1h0A1,1,0,0,1,52.33,49.66Zm0,6H35.52a1,1,0,0,1-1-1h0a1,1,0,0,1,1-1H52.33a1,1,0,0,1,1,1h0A1,1,0,0,1,52.33,55.66Z"/></g></svg>