<svg id="Layer_1" data-name="Layer 1" xmlns="http://www.w3.org/2000/svg" viewBox="0 0 100 98.2"><defs><style>.cls-1{fill:#fff;}</style></defs><path class="cls-1" d="M32.1,38.7c2.8,0,4.9-.6,6.2-1.8s2-3.1,2-5.6-.7-4.5-2-5.7-3.4-1.9-6.3-1.9H25.3V44.5h4.2V38.7Zm-2.6-11h2.4a5.22,5.22,0,0,1,3.1.8,3,3,0,0,1,1,2.6,4.14,4.14,0,0,1-.8,2.7,3.72,3.72,0,0,1-2.9.9H29.5Z"/><path class="cls-1" d="M56.8,41.6c1.8-1.9,2.6-4.4,2.6-7.7a10.38,10.38,0,0,0-2.7-7.6q-2.7-2.7-7.8-2.7H42.2V44.4h6.5C52.3,44.5,55,43.5,56.8,41.6Zm-3.2-2.8a5.67,5.67,0,0,1-4.4,1.6H46.5V27.7h2.4a6.52,6.52,0,0,1,4.8,1.7,6.84,6.84,0,0,1,1.6,4.7A7.4,7.4,0,0,1,53.6,38.8Z"/><polygon class="cls-1" points="74.7 27.8 74.7 23.7 61.7 23.7 61.7 44.5 65.9 44.5 65.9 36.3 74.2 36.3 74.2 32.3 65.9 32.3 65.9 27.8 74.7 27.8"/><path class="cls-1" d="M80.2,1.8H19.8a6.27,6.27,0,0,0-6.3,6.3V81.9a6.27,6.27,0,0,0,6.3,6.3H33.7l-1.9-1.9-1.9-1.9h-10a2.48,2.48,0,0,1-2.5-2.5V8.1a2.48,2.48,0,0,1,2.5-2.5H80.4a2.48,2.48,0,0,1,2.5,2.5V81.9a2.48,2.48,0,0,1-2.5,2.5H71.8l-1.9,1.9L68,88.2H80.4a6.27,6.27,0,0,0,6.3-6.3V8.1A6.51,6.51,0,0,0,80.2,1.8Z"/><polygon class="cls-1" points="72.1 76.4 59 76.3 59 54.7 41 54.7 41 76 27.9 75.8 50.3 98.2 72.1 76.4"/></svg>